<?xml version="1.0" encoding="UTF-8" standalone="no"?>
<svg
   xmlns:dc="http://purl.org/dc/elements/1.1/"
   xmlns:cc="http://creativecommons.org/ns#"
   xmlns:rdf="http://www.w3.org/1999/02/22-rdf-syntax-ns#"
   xmlns:svg="http://www.w3.org/2000/svg"
   xmlns="http://www.w3.org/2000/svg"
   xmlns:sodipodi="http://sodipodi.sourceforge.net/DTD/sodipodi-0.dtd"
   xmlns:inkscape="http://www.inkscape.org/namespaces/inkscape"
   id="Capa_1"
   style="enable-background:new 0 0 60 60;"
   version="1.1"
   viewBox="0 0 60 60"
   xml:space="preserve"
   sodipodi:docname="element-icon-statistics-green.svg"
   inkscape:version="1.0.1 (3bc2e813f5, 2020-09-07, custom)"><metadata
     id="metadata1500"><rdf:RDF><cc:Work
         rdf:about=""><dc:format>image/svg+xml</dc:format><dc:type
           rdf:resource="http://purl.org/dc/dcmitype/StillImage" /><dc:title></dc:title></cc:Work></rdf:RDF></metadata><defs
     id="defs1498" /><sodipodi:namedview
     pagecolor="#ffffff"
     bordercolor="#666666"
     borderopacity="1"
     objecttolerance="10"
     gridtolerance="10"
     guidetolerance="10"
     inkscape:pageopacity="0"
     inkscape:pageshadow="2"
     inkscape:window-width="1598"
     inkscape:window-height="882"
     id="namedview1496"
     showgrid="false"
     inkscape:pagecheckerboard="true"
     inkscape:zoom="7.7899597"
     inkscape:cx="26.722867"
     inkscape:cy="34.312793"
     inkscape:window-x="0"
     inkscape:window-y="636"
     inkscape:window-maximized="1"
     inkscape:current-layer="Capa_1" /><g
     id="g1463"
     style="stroke-width:1.0015748;stroke-miterlimit:4;stroke-dasharray:none;fill:#d9f0c8;fill-opacity:1"><circle
       style="fill:#d9f0c8;stroke-width:1.0015748;stroke-miterlimit:4;stroke-dasharray:none;fill-opacity:1"
       cx="56"
       cy="23"
       r="1"
       id="circle1345" /><circle
       style="fill:#d9f0c8;stroke-width:1.0015748;stroke-miterlimit:4;stroke-dasharray:none;fill-opacity:1"
       cx="56"
       cy="29"
       r="1"
       id="circle1347" /><circle
       style="fill:#d9f0c8;stroke-width:1.0015748;stroke-miterlimit:4;stroke-dasharray:none;fill-opacity:1"
       cx="53"
       cy="32"
       r="1"
       id="circle1349" /><circle
       style="fill:#d9f0c8;stroke-width:1.0015748;stroke-miterlimit:4;stroke-dasharray:none;fill-opacity:1"
       cx="41"
       cy="32"
       r="1"
       id="circle1351" /><circle
       style="fill:#d9f0c8;stroke-width:1.0015748;stroke-miterlimit:4;stroke-dasharray:none;fill-opacity:1"
       cx="44"
       cy="29"
       r="1"
       id="circle1353" /><circle
       style="fill:#d9f0c8;stroke-width:1.0015748;stroke-miterlimit:4;stroke-dasharray:none;fill-opacity:1"
       cx="26"
       cy="41"
       r="1"
       id="circle1355" /><circle
       style="fill:#d9f0c8;stroke-width:1.0015748;stroke-miterlimit:4;stroke-dasharray:none;fill-opacity:1"
       cx="53"
       cy="38"
       r="1"
       id="circle1357" /><circle
       style="fill:#d9f0c8;stroke-width:1.0015748;stroke-miterlimit:4;stroke-dasharray:none;fill-opacity:1"
       cx="56"
       cy="35"
       r="1"
       id="circle1359" /><circle
       style="fill:#d9f0c8;stroke-width:1.0015748;stroke-miterlimit:4;stroke-dasharray:none;fill-opacity:1"
       cx="56"
       cy="41"
       r="1"
       id="circle1361" /><circle
       style="fill:#d9f0c8;stroke-width:1.0015748;stroke-miterlimit:4;stroke-dasharray:none;fill-opacity:1"
       cx="47"
       cy="38"
       r="1"
       id="circle1363" /><circle
       style="fill:#d9f0c8;stroke-width:1.0015748;stroke-miterlimit:4;stroke-dasharray:none;fill-opacity:1"
       cx="50"
       cy="35"
       r="1"
       id="circle1365" /><circle
       style="fill:#d9f0c8;stroke-width:1.0015748;stroke-miterlimit:4;stroke-dasharray:none;fill-opacity:1"
       cx="50"
       cy="41"
       r="1"
       id="circle1367" /><circle
       style="fill:#d9f0c8;stroke-width:1.0015748;stroke-miterlimit:4;stroke-dasharray:none;fill-opacity:1"
       cx="35"
       cy="38"
       r="1"
       id="circle1369" /><circle
       style="fill:#d9f0c8;stroke-width:1.0015748;stroke-miterlimit:4;stroke-dasharray:none;fill-opacity:1"
       cx="41"
       cy="38"
       r="1"
       id="circle1371" /><circle
       style="fill:#d9f0c8;stroke-width:1.0015748;stroke-miterlimit:4;stroke-dasharray:none;fill-opacity:1"
       cx="23"
       cy="44"
       r="1"
       id="circle1373" /><circle
       style="fill:#d9f0c8;stroke-width:1.0015748;stroke-miterlimit:4;stroke-dasharray:none;fill-opacity:1"
       cx="29"
       cy="44"
       r="1"
       id="circle1375" /><circle
       style="fill:#d9f0c8;stroke-width:1.0015748;stroke-miterlimit:4;stroke-dasharray:none;fill-opacity:1"
       cx="11"
       cy="44"
       r="1"
       id="circle1377" /><circle
       style="fill:#d9f0c8;stroke-width:1.0015748;stroke-miterlimit:4;stroke-dasharray:none;fill-opacity:1"
       cx="53"
       cy="44"
       r="1"
       id="circle1379" /><circle
       style="fill:#d9f0c8;stroke-width:1.0015748;stroke-miterlimit:4;stroke-dasharray:none;fill-opacity:1"
       cx="47"
       cy="44"
       r="1"
       id="circle1381" /><circle
       style="fill:#d9f0c8;stroke-width:1.0015748;stroke-miterlimit:4;stroke-dasharray:none;fill-opacity:1"
       cx="35"
       cy="44"
       r="1"
       id="circle1383" /><circle
       style="fill:#d9f0c8;stroke-width:1.0015748;stroke-miterlimit:4;stroke-dasharray:none;fill-opacity:1"
       cx="41"
       cy="44"
       r="1"
       id="circle1385" /><circle
       style="fill:#d9f0c8;stroke-width:1.0015748;stroke-miterlimit:4;stroke-dasharray:none;fill-opacity:1"
       cx="38"
       cy="35"
       r="1"
       id="circle1387" /><circle
       style="fill:#d9f0c8;stroke-width:1.0015748;stroke-miterlimit:4;stroke-dasharray:none;fill-opacity:1"
       cx="44"
       cy="35"
       r="1"
       id="circle1389" /><circle
       style="fill:#d9f0c8;stroke-width:1.0015748;stroke-miterlimit:4;stroke-dasharray:none;fill-opacity:1"
       cx="38"
       cy="41"
       r="1"
       id="circle1391" /><circle
       style="fill:#d9f0c8;stroke-width:1.0015748;stroke-miterlimit:4;stroke-dasharray:none;fill-opacity:1"
       cx="44"
       cy="41"
       r="1"
       id="circle1393" /><circle
       style="fill:#d9f0c8;stroke-width:1.0015748;stroke-miterlimit:4;stroke-dasharray:none;fill-opacity:1"
       cx="23"
       cy="50"
       r="1"
       id="circle1395" /><circle
       style="fill:#d9f0c8;stroke-width:1.0015748;stroke-miterlimit:4;stroke-dasharray:none;fill-opacity:1"
       cx="26"
       cy="47"
       r="1"
       id="circle1397" /><circle
       style="fill:#d9f0c8;stroke-width:1.0015748;stroke-miterlimit:4;stroke-dasharray:none;fill-opacity:1"
       cx="26"
       cy="53"
       r="1"
       id="circle1399" /><circle
       style="fill:#d9f0c8;stroke-width:1.0015748;stroke-miterlimit:4;stroke-dasharray:none;fill-opacity:1"
       cx="29"
       cy="50"
       r="1"
       id="circle1401" /><circle
       style="fill:#d9f0c8;stroke-width:1.0015748;stroke-miterlimit:4;stroke-dasharray:none;fill-opacity:1"
       cx="17"
       cy="50"
       r="1"
       id="circle1403" /><circle
       style="fill:#d9f0c8;stroke-width:1.0015748;stroke-miterlimit:4;stroke-dasharray:none;fill-opacity:1"
       cx="20"
       cy="53"
       r="1"
       id="circle1405" /><circle
       style="fill:#d9f0c8;stroke-width:1.0015748;stroke-miterlimit:4;stroke-dasharray:none;fill-opacity:1"
       cx="5"
       cy="50"
       r="1"
       id="circle1407" /><circle
       style="fill:#d9f0c8;stroke-width:1.0015748;stroke-miterlimit:4;stroke-dasharray:none;fill-opacity:1"
       cx="11"
       cy="50"
       r="1"
       id="circle1409" /><circle
       style="fill:#d9f0c8;stroke-width:1.0015748;stroke-miterlimit:4;stroke-dasharray:none;fill-opacity:1"
       cx="8"
       cy="47"
       r="1"
       id="circle1411" /><circle
       style="fill:#d9f0c8;stroke-width:1.0015748;stroke-miterlimit:4;stroke-dasharray:none;fill-opacity:1"
       cx="14"
       cy="47"
       r="1"
       id="circle1413" /><circle
       style="fill:#d9f0c8;stroke-width:1.0015748;stroke-miterlimit:4;stroke-dasharray:none;fill-opacity:1"
       cx="8"
       cy="53"
       r="1"
       id="circle1415" /><circle
       style="fill:#d9f0c8;stroke-width:1.0015748;stroke-miterlimit:4;stroke-dasharray:none;fill-opacity:1"
       cx="14"
       cy="53"
       r="1"
       id="circle1417" /><circle
       style="fill:#d9f0c8;stroke-width:1.0015748;stroke-miterlimit:4;stroke-dasharray:none;fill-opacity:1"
       cx="53"
       cy="50"
       r="1"
       id="circle1419" /><circle
       style="fill:#d9f0c8;stroke-width:1.0015748;stroke-miterlimit:4;stroke-dasharray:none;fill-opacity:1"
       cx="56"
       cy="47"
       r="1"
       id="circle1421" /><circle
       style="fill:#d9f0c8;stroke-width:1.0015748;stroke-miterlimit:4;stroke-dasharray:none;fill-opacity:1"
       cx="56"
       cy="53"
       r="1"
       id="circle1423" /><circle
       style="fill:#d9f0c8;stroke-width:1.0015748;stroke-miterlimit:4;stroke-dasharray:none;fill-opacity:1"
       cx="47"
       cy="50"
       r="1"
       id="circle1425" /><circle
       style="fill:#d9f0c8;stroke-width:1.0015748;stroke-miterlimit:4;stroke-dasharray:none;fill-opacity:1"
       cx="50"
       cy="47"
       r="1"
       id="circle1427" /><circle
       style="fill:#d9f0c8;stroke-width:1.0015748;stroke-miterlimit:4;stroke-dasharray:none;fill-opacity:1"
       cx="50"
       cy="53"
       r="1"
       id="circle1429" /><circle
       style="fill:#d9f0c8;stroke-width:1.0015748;stroke-miterlimit:4;stroke-dasharray:none;fill-opacity:1"
       cx="32"
       cy="47"
       r="1"
       id="circle1431" /><circle
       style="fill:#d9f0c8;stroke-width:1.0015748;stroke-miterlimit:4;stroke-dasharray:none;fill-opacity:1"
       cx="32"
       cy="53"
       r="1"
       id="circle1433" /><circle
       style="fill:#d9f0c8;stroke-width:1.0015748;stroke-miterlimit:4;stroke-dasharray:none;fill-opacity:1"
       cx="35"
       cy="50"
       r="1"
       id="circle1435" /><circle
       style="fill:#d9f0c8;stroke-width:1.0015748;stroke-miterlimit:4;stroke-dasharray:none;fill-opacity:1"
       cx="41"
       cy="50"
       r="1"
       id="circle1437" /><circle
       style="fill:#d9f0c8;stroke-width:1.0015748;stroke-miterlimit:4;stroke-dasharray:none;fill-opacity:1"
       cx="38"
       cy="47"
       r="1"
       id="circle1439" /><circle
       style="fill:#d9f0c8;stroke-width:1.0015748;stroke-miterlimit:4;stroke-dasharray:none;fill-opacity:1"
       cx="44"
       cy="47"
       r="1"
       id="circle1441" /><circle
       style="fill:#d9f0c8;stroke-width:1.0015748;stroke-miterlimit:4;stroke-dasharray:none;fill-opacity:1"
       cx="38"
       cy="53"
       r="1"
       id="circle1443" /><circle
       style="fill:#d9f0c8;stroke-width:1.0015748;stroke-miterlimit:4;stroke-dasharray:none;fill-opacity:1"
       cx="44"
       cy="53"
       r="1"
       id="circle1445" /><path
       style="fill:#d9f0c8;stroke-width:1.0015748;stroke-miterlimit:4;stroke-dasharray:none;fill-opacity:1"
       d="M7,29h2c0.553,0,1-0.447,1-1s-0.447-1-1-1H7c-0.553,0-1,0.447-1,1S6.447,29,7,29z"
       id="path1447" /><path
       style="fill:#d9f0c8;stroke-width:1.0015748;stroke-miterlimit:4;stroke-dasharray:none;fill-opacity:1"
       d="M7,25h2c0.553,0,1-0.447,1-1s-0.447-1-1-1H7c-0.553,0-1,0.447-1,1S6.447,25,7,25z"
       id="path1449" /><path
       style="fill:#d9f0c8;stroke-width:1.0015748;stroke-miterlimit:4;stroke-dasharray:none;fill-opacity:1"
       d="M7,21h2c0.553,0,1-0.447,1-1s-0.447-1-1-1H7c-0.553,0-1,0.447-1,1S6.447,21,7,21z"
       id="path1451" /><path
       style="fill:#d9f0c8;stroke-width:1.0015748;stroke-miterlimit:4;stroke-dasharray:none;fill-opacity:1"
       d="M7,17h2c0.553,0,1-0.447,1-1s-0.447-1-1-1H7c-0.553,0-1,0.447-1,1S6.447,17,7,17z"
       id="path1453" /><path
       style="fill:#d9f0c8;stroke-width:1.0015748;stroke-miterlimit:4;stroke-dasharray:none;fill-opacity:1"
       d="M7,13h2c0.553,0,1-0.447,1-1s-0.447-1-1-1H7c-0.553,0-1,0.447-1,1S6.447,13,7,13z"
       id="path1455" /><path
       style="fill:#d9f0c8;stroke-width:1.0015748;stroke-miterlimit:4;stroke-dasharray:none;fill-opacity:1"
       d="M7,9h2c0.553,0,1-0.447,1-1S9.553,7,9,7H7C6.447,7,6,7.447,6,8S6.447,9,7,9z"
       id="path1457" /><path
       style="fill:#d9f0c8;stroke-width:1.0015748;stroke-miterlimit:4;stroke-dasharray:none;fill-opacity:1"
       d="M7,5h2c0.553,0,1-0.447,1-1S9.553,3,9,3H7C6.447,3,6,3.447,6,4S6.447,5,7,5z"
       id="path1459" /><path
       style="fill:#d9f0c8;stroke-width:1.0015748;stroke-miterlimit:4;stroke-dasharray:none;fill-opacity:1"
       d="M47.939,29.253l-6-8l-11,17l-6.141-8.188l-7,15l-5.69-7.588L4,45.586V1c0-0.553-0.447-1-1-1S2,0.447,2,1v46.586V56H1   c-0.553,0-1,0.447-1,1s0.447,1,1,1h1v1c0,0.553,0.447,1,1,1s1-0.447,1-1v-1h55h1V10.614L47.939,29.253z M54,56c0-0.552-0.448-1-1-1   s-1,0.448-1,1h-4c0-0.552-0.448-1-1-1s-1,0.448-1,1h-4c0-0.552-0.448-1-1-1s-1,0.448-1,1h-4c0-0.552-0.448-1-1-1s-1,0.448-1,1h-4   c0-0.552-0.448-1-1-1s-1,0.448-1,1h-4c0-0.552-0.448-1-1-1s-1,0.448-1,1h-4c0-0.552-0.448-1-1-1s-1,0.448-1,1h-4   c0-0.552-0.448-1-1-1s-1,0.448-1,1H6c0-0.552-0.448-1-1-1s-1,0.448-1,1v-6v-1.586l7.892-7.892l6.31,8.412l0.83-1.779   C19.109,47.631,19.503,48,20,48c0.552,0,1-0.448,1-1s-0.448-1-1-1c-0.187,0-0.352,0.065-0.501,0.154l5.702-12.219l5.859,7.813   l0.127-0.196C31.367,41.815,31.656,42,32,42c0.552,0,1-0.448,1-1c0-0.492-0.363-0.883-0.831-0.966l9.892-15.287l4.723,6.297   C46.339,31.145,46,31.525,46,32c0,0.552,0.448,1,1,1c0.375,0,0.689-0.215,0.86-0.52l0.2,0.267l4.067-6.285   C52.296,26.778,52.617,27,53,27c0.552,0,1-0.448,1-1c0-0.529-0.415-0.952-0.935-0.987L58,17.386V56H54z"
       id="path1461" /></g><g
     id="g1465" /><g
     id="g1467" /><g
     id="g1469" /><g
     id="g1471" /><g
     id="g1473" /><g
     id="g1475" /><g
     id="g1477" /><g
     id="g1479" /><g
     id="g1481" /><g
     id="g1483" /><g
     id="g1485" /><g
     id="g1487" /><g
     id="g1489" /><g
     id="g1491" /><g
     id="g1493" /></svg>
