<?xml version="1.0" encoding="UTF-8" standalone="no"?>
<svg
   xmlns:dc="http://purl.org/dc/elements/1.1/"
   xmlns:cc="http://creativecommons.org/ns#"
   xmlns:rdf="http://www.w3.org/1999/02/22-rdf-syntax-ns#"
   xmlns:svg="http://www.w3.org/2000/svg"
   xmlns="http://www.w3.org/2000/svg"
   xmlns:sodipodi="http://sodipodi.sourceforge.net/DTD/sodipodi-0.dtd"
   xmlns:inkscape="http://www.inkscape.org/namespaces/inkscape"
   id="Capa_1"
   style="enable-background:new 0 0 60 60;"
   version="1.1"
   viewBox="0 0 60 60"
   xml:space="preserve"
   sodipodi:docname="element-icon-devices-green.svg"
   inkscape:version="1.0.1 (3bc2e813f5, 2020-09-07, custom)"><metadata
     id="metadata3572"><rdf:RDF><cc:Work
         rdf:about=""><dc:format>image/svg+xml</dc:format><dc:type
           rdf:resource="http://purl.org/dc/dcmitype/StillImage" /><dc:title></dc:title></cc:Work></rdf:RDF></metadata><defs
     id="defs3570" /><sodipodi:namedview
     pagecolor="#ffffff"
     bordercolor="#666666"
     borderopacity="1"
     objecttolerance="10"
     gridtolerance="10"
     guidetolerance="10"
     inkscape:pageopacity="0"
     inkscape:pageshadow="2"
     inkscape:window-width="1598"
     inkscape:window-height="882"
     id="namedview3568"
     showgrid="false"
     inkscape:zoom="11.016667"
     inkscape:cx="30"
     inkscape:cy="30"
     inkscape:window-x="0"
     inkscape:window-y="636"
     inkscape:window-maximized="1"
     inkscape:current-layer="Capa_1" /><path
     style="fill:#d9f0c8;fill-opacity:1"
     d="M53,41V29H31V18.931c3.94-0.495,7-3.859,7-7.931c0-4.411-3.589-8-8-8s-8,3.589-8,8c0,4.072,3.06,7.436,7,7.931V29H7v12H0v16  h16V41H9V31h20v10h-7v16h16V41h-7V31h20v10h-7v16h16V41H53z M24,11c0-3.309,2.691-6,6-6s6,2.691,6,6s-2.691,6-6,6S24,14.309,24,11z   M14,55H2V43h12V55z M36,55H24V43h12V55z M58,55H46V43h12V55z"
     id="path3535" /><g
     id="g3537" /><g
     id="g3539" /><g
     id="g3541" /><g
     id="g3543" /><g
     id="g3545" /><g
     id="g3547" /><g
     id="g3549" /><g
     id="g3551" /><g
     id="g3553" /><g
     id="g3555" /><g
     id="g3557" /><g
     id="g3559" /><g
     id="g3561" /><g
     id="g3563" /><g
     id="g3565" /></svg>
