<?xml version="1.0" encoding="UTF-8" standalone="no"?>
<svg
   xmlns:dc="http://purl.org/dc/elements/1.1/"
   xmlns:cc="http://creativecommons.org/ns#"
   xmlns:rdf="http://www.w3.org/1999/02/22-rdf-syntax-ns#"
   xmlns:svg="http://www.w3.org/2000/svg"
   xmlns="http://www.w3.org/2000/svg"
   xmlns:sodipodi="http://sodipodi.sourceforge.net/DTD/sodipodi-0.dtd"
   xmlns:inkscape="http://www.inkscape.org/namespaces/inkscape"
   id="Capa_1"
   style="enable-background:new 0 0 59 59;"
   version="1.1"
   viewBox="0 0 59 59"
   xml:space="preserve"
   sodipodi:docname="element-icon-declarations-yellow.svg"
   inkscape:version="1.0.1 (3bc2e813f5, 2020-09-07, custom)"><metadata
     id="metadata4559"><rdf:RDF><cc:Work
         rdf:about=""><dc:format>image/svg+xml</dc:format><dc:type
           rdf:resource="http://purl.org/dc/dcmitype/StillImage" /><dc:title /></cc:Work></rdf:RDF></metadata><defs
     id="defs4557" /><sodipodi:namedview
     pagecolor="#ffffff"
     bordercolor="#666666"
     borderopacity="1"
     objecttolerance="10"
     gridtolerance="10"
     guidetolerance="10"
     inkscape:pageopacity="0"
     inkscape:pageshadow="2"
     inkscape:window-width="1598"
     inkscape:window-height="882"
     id="namedview4555"
     showgrid="false"
     inkscape:zoom="11.20339"
     inkscape:cx="29.5"
     inkscape:cy="29.5"
     inkscape:window-x="0"
     inkscape:window-y="636"
     inkscape:window-maximized="1"
     inkscape:current-layer="Capa_1"
     inkscape:document-rotation="0" /><g
     id="g4522"
     style="fill:#dfdf96;fill-opacity:1"><path
       style="fill:#dfdf96;fill-opacity:1"
       d="M59,41V15h-9c-0.553,0-1,0.447-1,1s0.447,1,1,1h7v22H11V17h7c0.553,0,1-0.447,1-1s-0.447-1-1-1h-7V7c0-0.553-0.447-1-1-1   H7.858C7.411,4.28,5.859,3,4,3C1.794,3,0,4.794,0,7s1.794,4,4,4c1.859,0,3.411-1.28,3.858-3H9v7v1v24v1v6c0,0.553,0.447,1,1,1   h7.031C15.806,48.912,15,50.359,15,52c0,2.757,2.243,5,5,5s5-2.243,5-5c0-1.641-0.806-3.088-2.031-4h18.062   C39.806,48.912,39,50.359,39,52c0,2.757,2.243,5,5,5s5-2.243,5-5c0-1.641-0.806-3.088-2.031-4H53c0.553,0,1-0.447,1-1s-0.447-1-1-1   H11v-5H59z M4,9C2.897,9,2,8.103,2,7s0.897-2,2-2c0.737,0,1.375,0.405,1.722,1H5C4.447,6,4,6.447,4,7s0.447,1,1,1h0.722   C5.375,8.595,4.737,9,4,9z M20,55c-1.654,0-3-1.346-3-3s1.346-3,3-3s3,1.346,3,3S21.654,55,20,55z M44,55c-1.654,0-3-1.346-3-3   s1.346-3,3-3s3,1.346,3,3S45.654,55,44,55z"
       id="path4516" /><path
       style="fill:#dfdf96;fill-opacity:1"
       d="M34,30c7.72,0,14-6.28,14-14S41.72,2,34,2S20,8.28,20,16S26.28,30,34,30z M34,4c6.617,0,12,5.383,12,12s-5.383,12-12,12   s-12-5.383-12-12S27.383,4,34,4z"
       id="path4518" /><path
       style="fill:#dfdf96;fill-opacity:1"
       d="M33,17v7c0,0.553,0.447,1,1,1s1-0.447,1-1v-7h7c0.553,0,1-0.447,1-1s-0.447-1-1-1h-7V8c0-0.553-0.447-1-1-1s-1,0.447-1,1v7   h-7c-0.553,0-1,0.447-1,1s0.447,1,1,1H33z"
       id="path4520" /></g><g
     id="g4524" /><g
     id="g4526" /><g
     id="g4528" /><g
     id="g4530" /><g
     id="g4532" /><g
     id="g4534" /><g
     id="g4536" /><g
     id="g4538" /><g
     id="g4540" /><g
     id="g4542" /><g
     id="g4544" /><g
     id="g4546" /><g
     id="g4548" /><g
     id="g4550" /><g
     id="g4552" /></svg>
